<?xml version="1.0" standalone="no"?><!DOCTYPE svg PUBLIC "-//W3C//DTD SVG 1.1//EN" "http://www.w3.org/Graphics/SVG/1.1/DTD/svg11.dtd"><svg t="1534842839231" class="icon" style="" viewBox="0 0 1163 1024" version="1.1" xmlns="http://www.w3.org/2000/svg" p-id="5378" xmlns:xlink="http://www.w3.org/1999/xlink" width="227.1484375" height="200"><defs><style type="text/css"></style></defs><path d="M997.589644 589.824v383.069091c0 13.870545-4.561455 25.832727-13.730909 35.933091a42.402909 42.402909 0 0 1-32.488728 15.173818h-277.131636v-306.501818h-184.785455V1024H212.32128a42.402909 42.402909 0 0 1-32.488727-15.173818 51.758545 51.758545 0 0 1-13.730909-35.886546v-383.115636c0-0.558545 1.210182-1.349818 3.630545-2.420364 2.373818-1.024 3.584-1.861818 3.584-2.373818l415.045818-378.321454 414.999273 378.321454c0.465455 1.070545 0.698182 2.653091 0.698182 4.794182h-6.516364z m160.954181-55.063273l-44.776727 59.066182a23.924364 23.924364 0 0 1-15.127273 8.750546h-2.187636a20.898909 20.898909 0 0 1-15.127273-5.585455L581.845644 136.471273 82.412916 596.992a24.994909 24.994909 0 0 1-17.361454 5.585455 23.924364 23.924364 0 0 1-15.127273-8.750546l-44.776727-59.112727a27.834182 27.834182 0 0 1-5.026909-18.711273 24.064 24.064 0 0 1 7.912727-17.175273L527.015098 20.759273C542.375098 6.935273 560.667462 0 581.845644 0c21.178182 0 39.470545 6.935273 54.830545 20.759273l176.128 162.816V27.927273c0-7.447273 2.187636-13.544727 6.516364-18.338909a21.410909 21.410909 0 0 1 16.570182-7.214546h138.612363a21.410909 21.410909 0 0 1 16.570182 7.214546c4.328727 4.794182 6.516364 10.891636 6.516364 18.338909v325.632l158.068363 145.268363c4.794182 4.282182 7.447273 9.960727 7.912728 17.175273a27.834182 27.834182 0 0 1-5.02691 18.757818z" p-id="5379"></path></svg>