<?xml version="1.0" standalone="no"?><!DOCTYPE svg PUBLIC "-//W3C//DTD SVG 1.1//EN" "http://www.w3.org/Graphics/SVG/1.1/DTD/svg11.dtd"><svg t="1534843887933" class="icon" style="" viewBox="0 0 1068 1024" version="1.1" xmlns="http://www.w3.org/2000/svg" p-id="33501" xmlns:xlink="http://www.w3.org/1999/xlink" width="208.59375" height="200"><defs><style type="text/css"></style></defs><path d="M1004.340568 302.370618a386.564274 386.564274 0 0 0 28.207011-150.651085 170.951586 170.951586 0 0 0-46.797996-115.392321C928.480801-19.873122 781.676127-10.043406 619.058431 61.115192c-11.111853 0-21.368948-1.282137-34.831386-1.282137a487.853088 487.853088 0 0 0-161.976628 27.352254A481.015025 481.015025 0 0 0 114.964942 422.464107l-8.54758 35.258764 21.368949-28.63439a666.711185 666.711185 0 0 1 192.320534-172.874792l-29.702838 31.198665a1102.42404 1102.42404 0 0 0-162.617696 203.646077 961.602671 961.602671 0 0 0-96.160268 203.005008 538.283806 538.283806 0 0 0-30.984975 170.951586c0 50.858097 13.248748 89.322204 36.113523 112.186978a173.30217 173.30217 0 0 0 128.213689 46.370618 493.409015 493.409015 0 0 0 205.355593-56.200334 486.570952 486.570952 0 0 0 673.976628-273.949916l3.205342-9.829717H773.342237l-1.923205 3.846411a201.509182 201.509182 0 0 1-379.085142-88.040067h672.694491v-7.265442a482.083472 482.083472 0 0 0-61.115192-290.404007zM199.372287 976.347245a106.844741 106.844741 0 0 1-85.475793-24.78798c-40.173623-39.746244-32.267112-123.9399 21.368948-233.562604a478.023372 478.023372 0 0 0 187.619366 225.656094 373.956594 373.956594 0 0 1-123.512521 32.90818z m192.320534-514.136894a192.320534 192.320534 0 0 1 383.145242 0z m587.859767-197.021703a477.382304 477.382304 0 0 0-89.535894-95.946578 463.706177 463.706177 0 0 0-109.836393-67.312187c90.176962-35.258765 157.275459-35.258765 192.320534-1.282137 30.557596 30.771285 33.12187 87.612688 7.479132 164.540902z" p-id="33502"></path></svg>