<?xml version="1.0" standalone="no"?><!DOCTYPE svg PUBLIC "-//W3C//DTD SVG 1.1//EN" "http://www.w3.org/Graphics/SVG/1.1/DTD/svg11.dtd"><svg t="1536116000625" class="icon" style="" viewBox="0 0 1024 1024" version="1.1" xmlns="http://www.w3.org/2000/svg" p-id="2794" xmlns:xlink="http://www.w3.org/1999/xlink" width="200" height="200"><defs><style type="text/css"></style></defs><path d="M969.826263 644.137374c-11.119192-17.19596-34.262626-22.238384-51.458586-11.119192L510.836364 895.612121 105.373737 634.311111c-17.19596-11.119192-40.339394-6.076768-51.458585 11.119192-11.119192 17.19596-6.076768 40.339394 11.119191 51.458586l424.080809 273.325252c2.973737 2.068687 6.206061 3.749495 9.567676 4.913132 0.258586 0.129293 0.387879 0.129293 0.517172 0.258586 0.258586 0.129293 0.387879 0.129293 0.775758 0.258585s0.775758 0.258586 1.163636 0.258586h0.129293c2.844444 0.775758 5.818182 1.163636 8.662626 1.29293h1.680808c2.844444-0.129293 5.947475-0.517172 8.662626-1.29293h0.129293c0.387879-0.129293 0.775758-0.258586 1.163637-0.258586 0.258586-0.129293 0.517172-0.129293 0.775757-0.258585 0.258586-0.129293 0.387879-0.129293 0.517172-0.258586 3.361616-1.163636 6.593939-2.844444 9.567677-4.913132L958.707071 695.59596c17.325253-11.119192 22.238384-34.262626 11.119192-51.458586z m0 0" p-id="2795" fill="#2c2c2c"></path><path d="M969.826263 493.381818c-11.119192-17.19596-34.262626-22.238384-51.458586-11.119192L510.836364 744.727273 105.373737 483.555556c-17.19596-11.119192-40.339394-6.076768-51.458585 11.119191-11.119192 17.19596-6.076768 40.339394 11.119191 51.458586l424.080809 273.325253c2.973737 2.068687 6.206061 3.749495 9.567676 4.913131 0.258586 0.129293 0.387879 0.129293 0.517172 0.258586 0.258586 0.129293 0.517172 0.129293 0.775758 0.258586 0.387879 0.129293 0.775758 0.258586 1.163636 0.258586h0.129293c2.844444 0.775758 5.818182 1.163636 8.662626 1.292929h1.680808c2.844444-0.129293 5.947475-0.517172 8.662626-1.292929h0.129293c0.387879-0.129293 0.775758-0.258586 1.163637-0.258586 0.258586-0.129293 0.517172-0.129293 0.775757-0.258586 0.258586-0.129293 0.387879-0.129293 0.517172-0.258586 3.361616-1.163636 6.593939-2.844444 9.567677-4.913131l426.149495-274.488889c17.454545-11.248485 22.367677-34.391919 11.248485-51.587879z m0 0" p-id="2796" fill="#2c2c2c"></path><path d="M958.707071 329.438384L532.557576 54.820202c-2.973737-2.068687-6.206061-3.749495-9.567677-4.913131-0.258586-0.129293-0.387879-0.129293-0.517172-0.258586-0.258586-0.129293-0.517172-0.129293-0.775757-0.258586-0.387879-0.129293-0.775758-0.258586-1.163637-0.258586h-0.129293c-2.844444-0.775758-5.818182-1.163636-8.662626-1.292929h-1.680808c-2.844444 0.129293-5.947475 0.517172-8.662626 1.292929h-0.129293c-0.387879 0.129293-0.775758 0.258586-1.163636 0.258586-0.258586 0.129293-0.517172 0.129293-0.775758 0.258586-0.258586 0.129293-0.387879 0.129293-0.517172 0.258586-3.361616 1.163636-6.593939 2.844444-9.567677 4.913131l-424.080808 273.325253c-11.636364 7.49899-17.713131 20.428283-16.937373 33.357575-0.775758 12.929293 5.430303 25.987879 16.937373 33.357576l424.080808 273.325253c2.973737 2.068687 6.206061 3.749495 9.567677 4.913131 0.258586 0.129293 0.387879 0.129293 0.517172 0.258586 0.258586 0.129293 0.387879 0.129293 0.775758 0.258586s0.775758 0.258586 1.163636 0.258585h0.129293c2.844444 0.775758 5.818182 1.163636 8.662626 1.29293h1.680808c2.844444-0.129293 5.947475-0.517172 8.662626-1.29293h0.129293c0.387879-0.129293 0.775758-0.258586 1.163637-0.258585 0.258586-0.129293 0.517172-0.129293 0.775757-0.258586 0.258586-0.129293 0.387879-0.129293 0.517172-0.258586 3.361616-1.163636 6.593939-2.844444 9.567677-4.913131l426.149495-274.618182c11.248485-7.240404 17.325253-19.523232 17.066666-32.064647 0.258586-12.541414-5.818182-24.824242-17.066666-32.064646zM510.836364 593.583838" p-id="2797" fill="#2c2c2c"></path></svg>