<?xml version="1.0" standalone="no"?><!DOCTYPE svg PUBLIC "-//W3C//DTD SVG 1.1//EN" "http://www.w3.org/Graphics/SVG/1.1/DTD/svg11.dtd"><svg t="1534843800942" class="icon" style="" viewBox="0 0 1024 1024" version="1.1" xmlns="http://www.w3.org/2000/svg" p-id="32706" xmlns:xlink="http://www.w3.org/1999/xlink" width="200" height="200"><defs><style type="text/css"></style></defs><path d="M50.086957 470.817391h-33.391305C16.695652 308.313043 96.834783 155.826087 230.4 63.443478l18.921739 27.826087C124.66087 176.973913 50.086957 319.443478 50.086957 470.817391zM512 966.121739c-84.591304 0-168.069565-21.147826-240.417391-62.330435l16.695652-28.93913c67.895652 37.843478 144.695652 57.878261 223.721739 57.878261 82.365217 0 164.730435-22.26087 234.852174-64.556522l16.695652 28.93913C687.86087 942.747826 601.043478 966.121739 512 966.121739zM1007.304348 470.817391h-33.391305c0-153.6-75.686957-297.182609-203.686956-382.886956l18.921739-27.826087c136.904348 92.382609 218.156522 245.982609 218.156522 410.713043zM222.608696 425.182609l-33.391305-5.565218c11.130435-73.46087 47.86087-141.356522 103.513044-191.443478l22.260869 24.486957c-48.973913 45.634783-81.252174 106.852174-92.382608 172.521739zM512 796.93913c-35.617391 0-70.121739-5.565217-102.4-16.695652l10.017391-31.165217c30.052174 10.017391 61.217391 14.469565 92.382609 14.469565 36.730435 0 73.46087-6.678261 107.965217-20.034783l12.243479 31.165218c-38.956522 14.469565-79.026087 22.26087-120.208696 22.260869zM801.391304 425.182609c-10.017391-63.443478-41.182609-122.434783-86.817391-165.843479l23.373913-24.486956c51.2 48.973913 85.704348 114.643478 96.834783 184.765217l-33.391305 5.565218zM503.095652 192.556522h33.391305v243.756521h-33.391305zM566.839652 541.862957l14.803478-29.94087 219.536696 108.454956-14.781217 29.94087z" p-id="32707"></path><path d="M519.791304 221.495652c-44.521739 0-80.13913-35.617391-80.13913-80.13913s35.617391-80.13913 80.13913-80.139131 80.13913 35.617391 80.139131 80.139131-35.617391 80.13913-80.139131 80.13913z m0-128c-25.6 0-46.747826 21.147826-46.747826 46.747826s21.147826 46.747826 46.747826 46.747826S567.652174 166.956522 567.652174 141.356522s-21.147826-47.86087-47.86087-47.86087zM519.791304 579.895652c-44.521739 0-80.13913-35.617391-80.13913-80.13913s35.617391-80.13913 80.13913-80.139131 80.13913 35.617391 80.139131 80.139131c1.113043 44.521739-35.617391 80.13913-80.139131 80.13913z m0-126.886956c-25.6 0-46.747826 21.147826-46.747826 46.747826s21.147826 46.747826 46.747826 46.747826 46.747826-21.147826 46.747826-46.747826-20.034783-46.747826-46.747826-46.747826zM847.026087 741.286957c-44.521739 0-80.13913-35.617391-80.13913-80.139131s35.617391-80.13913 80.13913-80.13913 80.13913 35.617391 80.13913 80.13913-35.617391 80.13913-80.13913 80.139131z m0-126.886957c-25.6 0-46.747826 21.147826-46.747826 46.747826s21.147826 46.747826 46.747826 46.747826 46.747826-21.147826 46.747826-46.747826-21.147826-46.747826-46.747826-46.747826z" p-id="32708"></path><path d="M249.58887 620.454957l204.655304-108.210087 15.604869 29.517913-204.655304 108.210087z" p-id="32709"></path><path d="M207.026087 741.286957c-44.521739 0-80.13913-35.617391-80.13913-80.139131s35.617391-80.13913 80.13913-80.13913 80.13913 35.617391 80.13913 80.13913-35.617391 80.13913-80.13913 80.139131z m0-126.886957c-25.6 0-46.747826 21.147826-46.747826 46.747826s21.147826 46.747826 46.747826 46.747826 46.747826-21.147826 46.747826-46.747826-20.034783-46.747826-46.747826-46.747826z" p-id="32710"></path></svg>