<?xml version="1.0" standalone="no"?><!DOCTYPE svg PUBLIC "-//W3C//DTD SVG 1.1//EN" "http://www.w3.org/Graphics/SVG/1.1/DTD/svg11.dtd"><svg t="1534843154232" class="icon" style="" viewBox="0 0 1024 1024" version="1.1" xmlns="http://www.w3.org/2000/svg" p-id="12351" xmlns:xlink="http://www.w3.org/1999/xlink" width="200" height="200"><defs><style type="text/css"></style></defs><path d="M420.977778 438.044444L96.711111 301.511111c-17.066667-5.688889-39.822222 5.688889-39.822222 28.444445v381.155555c0 22.755556 11.377778 39.822222 28.444444 51.2l324.266667 187.733333c22.755556 5.688889 45.511111-11.377778 45.511111-34.133333V494.933333c0-22.755556-11.377778-45.511111-34.133333-56.888889zM927.288889 301.511111l-324.266667 136.533333c-22.755556 11.377778-34.133333 34.133333-34.133333 56.888889v426.666667c0 22.755556 22.755556 34.133333 45.511111 22.755556l324.266667-187.733334c17.066667-11.377778 28.444444-28.444444 28.444444-51.2V329.955556c0-22.755556-22.755556-34.133333-39.822222-28.444445zM898.844444 199.111111L534.755556 62.577778c-17.066667-5.688889-28.444444-5.688889-45.511112 0L125.155556 199.111111c-22.755556 11.377778-22.755556 45.511111 0 51.2l364.088888 136.533333c17.066667 11.377778 28.444444 11.377778 45.511112 5.688889l364.088888-136.533333c22.755556-11.377778 22.755556-45.511111 0-56.888889z" fill="" p-id="12352"></path></svg>